<svg xmlns="http://www.w3.org/2000/svg" width="28.363" height="28.819" viewBox="0 0 28.363 28.819"><defs><style>.a{fill:#fff;}</style></defs><g transform="translate(-126.464 -117.248)"><path class="a" d="M128.483,330.331l5.443-1.8a.915.915,0,0,1,1.207.871v18.823a.921.921,0,0,1-.91.91h-5.285a2.475,2.475,0,0,1-2.474-2.474V332.765A2.481,2.481,0,0,1,128.483,330.331Z" transform="translate(0 -203.067)"/><path class="a" d="M16.8,28.819H1.662A1.664,1.664,0,0,1,0,27.156V2.375A2.378,2.378,0,0,1,2.375,0L16.091,3.959a2.208,2.208,0,0,1,2.375,2.177V27.156A1.664,1.664,0,0,1,16.8,28.819ZM6.393,16.547a1.465,1.465,0,0,0,0,2.929H13.36a1.465,1.465,0,1,0,0-2.929Zm0-5.938a1.465,1.465,0,0,0,0,2.929H13.36a1.465,1.465,0,1,0,0-2.929Z" transform="translate(136.361 117.248)"/></g></svg>